# xmcd
#
# Track frame offsets:
#  150
#  11699
#  25076
#  37474
#  52257
#  68320
#  82668
#  94904
#  109685
#  122380
#
# Disc length: 1793 seconds
#
# Revision: 0
# Processed by: cddbd v1.5.2PL0 Copyright (c) Steve Scherf et al.
# Submitted via: Collectorz.com_Music_Collector 6.11
#
DISCID=7606ff0a
DTITLE=Mel Tillis - Southern Rain
DYEAR=1980
DGENRE=
TTITLE0=Southern Rain
TTITLE1=One Night Fever
TTITLE2=Time Has Treated You Well
TTITLE3=Million Old Goodbyes
TTITLE4=Shame On You Shame On Me
TTITLE5=Pyramid Of Cans
TTITLE6=Forgive Me For Giving You The Blues
TTITLE7=Here's Lookin' At You
TTITLE8=Louisiana Lonely
TTITLE9=Sweet Desire
EXTD=
EXTT0=
EXTT1=
EXTT2=
EXTT3=
EXTT4=
EXTT5=
EXTT6=
EXTT7=
EXTT8=
EXTT9=
PLAYORDER=
